<svg width="20" height="21" viewBox="0 0 20 21" fill="none" xmlns="http://www.w3.org/2000/svg">
<path d="M8.33496 4.66673C8.33496 4.2247 8.51056 3.80078 8.82312 3.48822C9.13568 3.17566 9.5596 3.00006 10.0016 3.00006C10.4437 3.00006 10.8676 3.17566 11.1801 3.48822C11.4927 3.80078 11.6683 4.2247 11.6683 4.66673C12.6253 5.11925 13.4411 5.82367 14.0283 6.70448C14.6155 7.58529 14.952 8.60929 15.0016 9.66673V12.1667C15.0643 12.6848 15.2478 13.1809 15.5373 13.6152C15.8268 14.0494 16.2142 14.4096 16.6683 14.6667H3.33496C3.78908 14.4096 4.17647 14.0494 4.46595 13.6152C4.75543 13.1809 4.93892 12.6848 5.00163 12.1667V9.66673C5.05126 8.60929 5.38771 7.58529 5.97492 6.70448C6.56213 5.82367 7.37795 5.11925 8.33496 4.66673" stroke="currentColor" stroke-width="1.5" stroke-linecap="round" stroke-linejoin="round"/>
<path d="M7.49707 14.6667V15.5001C7.49707 16.1631 7.76046 16.799 8.2293 17.2678C8.69814 17.7367 9.33403 18.0001 9.99707 18.0001C10.6601 18.0001 11.296 17.7367 11.7648 17.2678C12.2337 16.799 12.4971 16.1631 12.4971 15.5001V14.6667" stroke="currentColor" stroke-width="1.5" stroke-linecap="round" stroke-linejoin="round"/>
</svg>
