<svg width="20" height="21" viewBox="0 0 20 21" fill="none" xmlns="http://www.w3.org/2000/svg">
<g clip-path="url(#clip0_18652_722)">
<path d="M18.3337 6.31667V13.8333C18.3337 14.75 17.5837 15.5 16.667 15.5H5.00033L1.66699 18.8333V3.83333C1.66699 2.91667 2.41699 2.16667 3.33366 2.16667H11.7503C11.7003 2.43333 11.667 2.71667 11.667 3C11.667 5.3 13.5337 7.16667 15.8337 7.16667C16.7753 7.16667 17.6337 6.84167 18.3337 6.31667ZM13.3337 3C13.3337 4.38333 14.4503 5.5 15.8337 5.5C17.217 5.5 18.3337 4.38333 18.3337 3C18.3337 1.61667 17.217 0.5 15.8337 0.5C14.4503 0.5 13.3337 1.61667 13.3337 3Z" fill="currentColor"/>
</g>
<defs>
<clipPath id="clip0_18652_722">
<rect width="20" height="20" fill="white" transform="translate(0 0.5)"/>
</clipPath>
</defs>
</svg>
