<svg width="24" height="24" viewBox="0 0 24 24" fill="none" xmlns="http://www.w3.org/2000/svg">
<g clip-path="url(#clip0_18652_137)">
<path d="M11.9971 14.9999C13.1016 14.9999 13.9971 14.1044 13.9971 12.9999C13.9971 11.8953 13.1016 10.9999 11.9971 10.9999C10.8925 10.9999 9.99707 11.8953 9.99707 12.9999C9.99707 14.1044 10.8925 14.9999 11.9971 14.9999Z" stroke="currentColor" stroke-width="1.5" stroke-linecap="round" stroke-linejoin="round"/>
<path d="M13.4492 11.5501L15.4992 9.50006" stroke="currentColor" stroke-width="1.5" stroke-linecap="round" stroke-linejoin="round"/>
<path d="M6.40195 20.0001C4.9401 18.8382 3.87587 17.2503 3.35673 15.4566C2.8376 13.6628 2.88927 11.752 3.5046 9.9889C4.11992 8.22582 5.26842 6.6978 6.79094 5.61659C8.31346 4.53538 10.1346 3.95453 12.002 3.95453C13.8693 3.95453 15.6905 4.53538 17.213 5.61659C18.7355 6.6978 19.884 8.22582 20.4993 9.9889C21.1146 11.752 21.1663 13.6628 20.6472 15.4566C20.128 17.2503 19.0638 18.8382 17.602 20.0001H6.40195Z" stroke="currentColor" stroke-width="1.5" stroke-linecap="round" stroke-linejoin="round"/>
</g>
<defs>
<clipPath id="clip0_18652_137">
<rect width="24" height="24" fill="white"/>
</clipPath>
</defs>
</svg>
