<svg width="24" height="27" viewBox="0 0 24 27" fill="none" xmlns="http://www.w3.org/2000/svg">
<g clip-path="url(#clip0_18652_732)">
<path d="M10.325 5.12038C10.751 3.22412 13.249 3.22412 13.675 5.12038C13.7389 5.40525 13.8642 5.66979 14.0407 5.89249C14.2172 6.11518 14.4399 6.28972 14.6907 6.40191C14.9414 6.5141 15.2132 6.56077 15.4838 6.53811C15.7544 6.51545 16.0162 6.42411 16.248 6.27152C17.791 5.25644 19.558 7.1635 18.618 8.83083C18.4769 9.08099 18.3924 9.36357 18.3715 9.65561C18.3506 9.94764 18.3938 10.2409 18.4975 10.5115C18.6013 10.7821 18.7627 11.0225 18.9687 11.2131C19.1747 11.4037 19.4194 11.5391 19.683 11.6083C21.439 12.0683 21.439 14.7658 19.683 15.2258C19.4192 15.2949 19.1742 15.4302 18.968 15.6208C18.7618 15.8114 18.6001 16.0518 18.4963 16.3226C18.3924 16.5934 18.3491 16.8869 18.3701 17.1791C18.3911 17.4713 18.4757 17.7541 18.617 18.0044C19.557 19.6706 17.791 21.5787 16.247 20.5637C16.0153 20.4113 15.7537 20.3201 15.4832 20.2975C15.2128 20.2749 14.9412 20.3215 14.6906 20.4336C14.44 20.5456 14.2174 20.72 14.0409 20.9424C13.8645 21.1648 13.7391 21.4291 13.675 21.7137C13.249 23.61 10.751 23.61 10.325 21.7137C10.2611 21.4289 10.1358 21.1643 9.95929 20.9416C9.7828 20.7189 9.56011 20.5444 9.30935 20.4322C9.05859 20.32 8.78683 20.2733 8.51621 20.296C8.24559 20.3187 7.98375 20.41 7.752 20.5626C6.209 21.5777 4.442 19.6706 5.382 18.0033C5.5231 17.7531 5.60755 17.4705 5.62848 17.1785C5.64942 16.8865 5.60624 16.5932 5.50247 16.3226C5.3987 16.052 5.23726 15.8116 5.03127 15.621C4.82529 15.4305 4.58056 15.2951 4.317 15.2258C2.561 14.7658 2.561 12.0683 4.317 11.6083C4.5808 11.5392 4.82578 11.4039 5.032 11.2133C5.23822 11.0228 5.39985 10.7823 5.50375 10.5115C5.60764 10.2407 5.65085 9.94724 5.62987 9.655C5.60889 9.36277 5.5243 9.08001 5.383 8.82975C4.443 7.1635 6.209 5.25536 7.753 6.27044C8.753 6.92701 10.049 6.34603 10.325 5.12038Z" stroke="currentColor" stroke-width="1.5" stroke-linecap="round" stroke-linejoin="round"/>
<path d="M12 16.6566C13.6569 16.6566 15 15.2062 15 13.417C15 11.6278 13.6569 10.1774 12 10.1774C10.3431 10.1774 9 11.6278 9 13.417C9 15.2062 10.3431 16.6566 12 16.6566Z" stroke="currentColor" stroke-width="1.5" stroke-linecap="round" stroke-linejoin="round"/>
</g>
<defs>
<clipPath id="clip0_18652_732">
<rect width="24" height="25.917" fill="white" transform="translate(0 0.458557)"/>
</clipPath>
</defs>
</svg>
